<?xml version="1.0" standalone="no"?>
<!DOCTYPE svg PUBLIC "-//W3C//DTD SVG 20010904//EN"
 "http://www.w3.org/TR/2001/REC-SVG-20010904/DTD/svg10.dtd">
<svg version="1.0" xmlns="http://www.w3.org/2000/svg"
 width="256.000000pt" height="256.000000pt" viewBox="0 0 256.000000 256.000000"
 preserveAspectRatio="xMidYMid meet">
<metadata>
Created by potrace 1.11, written by Peter Selinger 2001-2013
</metadata>
<g transform="translate(0.000000,256.000000) scale(0.100000,-0.100000)"
fill="#000000" stroke="none">
<path d="M1147 2256 c-105 -44 -168 -108 -207 -212 -64 -172 16 -358 283 -663
l56 -65 3 -79 3 -78 95 -40 c52 -22 137 -58 188 -79 l94 -39 189 180 189 181
0 119 0 118 -67 20 c-38 11 -126 38 -198 60 -141 42 -126 43 -200 -5 -26 -17
-26 -16 8 52 50 101 60 137 55 217 -7 133 -78 241 -196 299 -57 28 -79 33
-152 36 -71 2 -94 -1 -143 -22z m203 -245 c50 -36 57 -124 14 -172 -26 -29
-79 -40 -121 -26 -101 34 -102 179 -2 214 39 13 74 8 109 -16z"/>
<path d="M520 1036 l0 -353 203 -41 202 -40 174 39 c96 21 184 39 197 39 16 0
65 40 156 127 73 69 134 129 136 133 2 4 -16 15 -40 25 -24 9 -173 72 -333
139 -472 199 -680 286 -688 286 -4 0 -7 -159 -7 -354z"/>
<path d="M1547 776 l-127 -124 77 -17 c43 -9 93 -20 111 -25 26 -7 81 1 230
31 107 21 197 39 199 39 2 0 3 18 3 39 l0 39 -168 71 c-92 39 -174 71 -182 71
-8 -1 -72 -57 -143 -124z"/>
</g>
</svg>
